<svg width="122" height="16" viewBox="0 0 122 16" fill="none" xmlns="http://www.w3.org/2000/svg">
<path fill-rule="evenodd" clip-rule="evenodd" d="M13.5212 8.00003C13.5212 3.76403 16.9556 0.332031 21.1892 0.332031C25.4228 0.332031 28.8572 3.76403 28.8572 8.00003C28.8572 12.236 25.4252 15.668 21.1892 15.668C16.9532 15.668 13.5212 12.236 13.5212 8.00003ZM16.9052 8.00003C16.9052 10.3616 18.8276 12.284 21.1892 12.284C23.5508 12.284 25.4732 10.3616 25.4732 8.00003C25.4732 5.63843 23.5508 3.71603 21.1892 3.71603C18.8276 3.71603 16.9052 5.63843 16.9052 8.00003ZM4.16351 9.51692H5.39952L9.96911 15.2721H14.3323L8.22432 7.82252L13.8667 0.728125H9.59712L5.42111 6.38972H4.16351V0.728125H0.693115V15.2721H4.16351V9.51692ZM30.6067 0.728125H33.9307L40.5595 9.60092V0.728125H44.0395V15.2721H40.7035L34.0747 6.39932V15.2721H30.6043V0.728125H30.6067ZM50.0251 9.51692H51.2611L55.8331 15.2721H60.1963L54.0883 7.82252L59.7283 0.728125H55.4587L51.2827 6.38972H50.0251V0.728125H46.5547V15.2721H50.0251V9.51692ZM66.0259 9.82892H65.2603V15.2721H61.7923V0.728125H68.3755C71.9707 0.728125 73.8811 2.51612 73.8811 5.38172C73.8811 7.67852 72.0547 9.72572 69.8179 9.72572L74.2243 15.2745H70.3507L66.0259 9.82892ZM65.2627 3.87453V6.90812H68.4187C69.6643 6.90812 70.4347 6.42092 70.4347 5.38172C70.4347 4.35212 69.6451 3.87453 68.4187 3.87453H65.2627ZM79.7082 0.728125H76.2378V15.2721H79.7082V0.728125ZM93.789 3.94892H89.4882V15.2721H86.0178V3.94892H81.7074V0.728125H93.7914V3.94892H93.789ZM103.541 5.31507C103.541 6.49428 102.729 7.15318 101.1 7.15318H98.1775V0.734375H100.94C102.564 0.734375 103.407 1.37139 103.407 2.5506C103.407 3.18276 103.04 3.67876 102.522 3.90731C103.091 4.10911 103.541 4.65617 103.541 5.31507ZM99.7117 2.02543V3.28974H100.903C101.453 3.28974 101.81 3.12927 101.81 2.65272C101.81 2.1859 101.453 2.02543 100.903 2.02543H99.7117ZM101.958 5.21538C101.958 4.74856 101.615 4.56864 101.022 4.56864H99.7117V5.86699H101.022C101.615 5.86699 101.958 5.69193 101.958 5.21538ZM109.461 5.77459V7.15561H104.545V0.734375H109.444V2.11539H106.076V3.22409H109.245V4.60024H106.076V5.77459H109.461ZM113.707 2.15672H115.606V0.734375H110.271V2.15672H112.175V7.15561H113.707V2.15672ZM119.353 5.8062H116.803L116.316 7.15561H114.717L117.18 0.734375H119.01L121.473 7.15561H119.839L119.353 5.8062ZM118.86 4.42032L118.079 2.25641L117.299 4.42032H118.86Z" fill="#FFD121"/>
</svg>
